<?xml version="1.0" ?><!DOCTYPE svg  PUBLIC '-//W3C//DTD SVG 1.1//EN'  'http://www.w3.org/Graphics/SVG/1.1/DTD/svg11.dtd'><svg enable-background="new 0 0 128 128" height="128px" id="Layer_1" version="1.1" viewBox="0 0 128 128" width="128px" xml:space="preserve" xmlns="http://www.w3.org/2000/svg" xmlns:xlink="http://www.w3.org/1999/xlink"><circle cx="64" cy="64" fill="#F7EC1E" r="64"/><g><path d="M64.545,104.443c-0.222,0-0.44-0.006-0.659-0.017h0c-0.139,0.011-0.285,0.017-0.43,0.017   c-5.105,0-8.382-2.316-11.55-4.557c-2.188-1.546-4.252-3.005-6.685-3.41c-1.187-0.196-2.369-0.296-3.511-0.296   c-2.057,0-3.68,0.317-4.864,0.549c-0.72,0.141-1.341,0.262-1.813,0.262c-0.493,0-1.028-0.106-1.26-0.9   c-0.202-0.688-0.348-1.353-0.488-1.997c-0.362-1.657-0.619-2.677-1.313-2.783c-8.097-1.251-10.415-2.957-10.931-4.167   c-0.073-0.173-0.115-0.346-0.125-0.518c-0.026-0.465,0.303-0.875,0.763-0.95c12.447-2.05,18.029-14.771,18.26-15.312   c0.006-0.015,0.013-0.029,0.02-0.045c0.762-1.543,0.911-2.884,0.445-3.982c-0.854-2.013-3.64-2.897-5.484-3.482   c-0.451-0.143-0.879-0.278-1.216-0.411c-3.68-1.455-3.986-2.948-3.842-3.709c0.247-1.297,1.98-2.201,3.381-2.201   c0.384,0,0.723,0.068,1.007,0.201c1.655,0.775,3.147,1.169,4.435,1.169c1.778,0,2.555-0.748,2.65-0.846   c-0.045-0.843-0.101-1.723-0.159-2.63c-0.371-5.886-0.83-13.197,1.032-17.371c5.58-12.512,17.413-13.483,20.906-13.483   c0.09,0,1.532-0.016,1.532-0.016l0.207-0.001c3.502,0,15.36,0.974,20.943,13.492c1.862,4.176,1.402,11.495,1.03,17.375L86.81,54.68   c-0.052,0.818-0.101,1.614-0.143,2.377c0.089,0.09,0.804,0.777,2.416,0.84h0.001c1.227-0.047,2.635-0.438,4.18-1.162   c0.453-0.211,0.957-0.256,1.299-0.256c0.523,0,1.053,0.102,1.494,0.285l0.026,0.011c1.25,0.443,2.069,1.319,2.087,2.234   c0.016,0.862-0.643,2.159-3.871,3.435c-0.335,0.131-0.763,0.268-1.216,0.411c-1.846,0.586-4.631,1.47-5.484,3.482   c-0.467,1.098-0.317,2.438,0.444,3.981c0.007,0.016,0.015,0.029,0.021,0.046c0.231,0.539,5.808,13.258,18.261,15.31   c0.46,0.076,0.789,0.486,0.764,0.951c-0.011,0.175-0.054,0.351-0.128,0.521c-0.514,1.202-2.829,2.905-10.929,4.156   c-0.662,0.102-0.919,0.964-1.313,2.772c-0.144,0.658-0.289,1.305-0.489,1.984c-0.172,0.59-0.54,0.865-1.158,0.865h-0.102   c-0.428,0-1.039-0.076-1.812-0.229c-1.371-0.269-2.908-0.515-4.864-0.515c-1.143,0-2.324,0.1-3.513,0.296   c-2.43,0.405-4.492,1.861-6.677,3.405C72.928,102.127,69.651,104.443,64.545,104.443" fill="#FFFFFF"/><path d="M64.852,24.47c3.314,0,14.73,0.89,20.111,12.951c1.77,3.971,1.317,11.165,0.953,16.945   c-0.059,0.917-0.114,1.805-0.16,2.655l-0.02,0.364l0.244,0.271c0.098,0.109,1.02,1.071,3.066,1.151h0.035h0.033   c1.354-0.052,2.879-0.472,4.536-1.248c0.243-0.114,0.567-0.17,0.911-0.17c0.393,0,0.808,0.074,1.15,0.219l0.052,0.021   c0.868,0.304,1.482,0.879,1.493,1.396c0.005,0.295-0.216,1.352-3.295,2.567c-0.301,0.119-0.697,0.245-1.156,0.39   c-2.002,0.638-5.029,1.597-6.049,3.996c-0.574,1.354-0.417,2.949,0.467,4.743c0.363,0.849,6.081,13.731,18.951,15.852   c-0.004,0.06-0.018,0.128-0.053,0.206c-0.219,0.514-1.605,2.288-10.231,3.619c-1.351,0.208-1.682,1.721-2.065,3.48   c-0.137,0.629-0.279,1.264-0.473,1.921c-0.059,0.199-0.07,0.211-0.283,0.211c-0.029,0-0.062,0-0.102,0   c-0.382,0-0.964-0.08-1.637-0.211c-1.223-0.239-2.9-0.532-5.04-0.532c-1.194,0-2.427,0.104-3.661,0.309   c-2.64,0.439-4.787,1.958-7.062,3.564c-3.054,2.159-6.208,4.39-11.024,4.39c-0.209,0-0.416-0.007-0.621-0.017l-0.054-0.003   l-0.055,0.006c-0.118,0.01-0.237,0.014-0.359,0.014c-4.815,0-7.972-2.23-11.024-4.389c-2.273-1.607-4.422-3.126-7.061-3.565   c-1.235-0.205-2.466-0.309-3.661-0.309c-2.14,0-3.816,0.326-5.04,0.565c-0.673,0.132-1.255,0.245-1.637,0.245   c-0.312,0-0.318-0.018-0.385-0.243c-0.193-0.658-0.335-1.311-0.472-1.938c-0.384-1.76-0.717-3.281-2.065-3.489   c-8.627-1.332-10.013-3.11-10.232-3.623c-0.035-0.079-0.049-0.148-0.052-0.209c12.869-2.12,18.586-15.002,18.95-15.853   c0.884-1.795,1.041-3.389,0.467-4.742c-1.018-2.4-4.045-3.36-6.049-3.998c-0.459-0.144-0.855-0.271-1.156-0.39   c-2.601-1.026-3.4-2.062-3.281-2.688c0.138-0.724,1.391-1.459,2.485-1.459c0.246,0,0.461,0.039,0.621,0.114   c1.777,0.831,3.4,1.255,4.821,1.255c2.237,0,3.233-1.041,3.338-1.159l0.243-0.271l-0.02-0.363   c-0.045-0.849-0.101-1.736-0.159-2.652c-0.364-5.78-0.817-12.971,0.954-16.942c5.359-12.017,16.719-12.942,20.073-12.942   c0.083,0,1.541-0.015,1.541-0.015C64.716,24.47,64.781,24.47,64.852,24.47 M64.852,22.645h-0.004c-0.076,0-0.146,0-0.215,0.002   c0,0-1.411,0.014-1.522,0.014c-3.63,0-15.933,1.012-21.738,14.025c-1.952,4.378-1.484,11.813-1.109,17.789   c0.044,0.704,0.091,1.436,0.132,2.143c-0.3,0.166-0.849,0.373-1.712,0.373c-1.152,0-2.514-0.364-4.047-1.082   c-0.407-0.19-0.876-0.286-1.395-0.286c-1.795,0-3.943,1.181-4.277,2.941c-0.241,1.269,0.326,3.118,4.402,4.728   c0.368,0.146,0.81,0.285,1.277,0.433c1.684,0.535,4.229,1.343,4.92,2.97c0.357,0.843,0.215,1.928-0.423,3.224   c-0.014,0.029-0.028,0.059-0.041,0.088c-0.224,0.521-5.611,12.801-17.57,14.771c-0.92,0.151-1.577,0.972-1.526,1.902   c0.016,0.276,0.082,0.552,0.195,0.819c0.897,2.099,4.685,3.636,11.578,4.706c0.23,0.312,0.47,1.412,0.617,2.083   c0.144,0.662,0.292,1.345,0.504,2.064c0.208,0.708,0.748,1.554,2.135,1.554c0.561,0,1.222-0.129,1.987-0.279   c1.148-0.225,2.721-0.532,4.69-0.532c1.092,0,2.224,0.095,3.363,0.284c2.225,0.37,4.115,1.707,6.303,3.253   c3.134,2.217,6.684,4.726,12.08,4.726c0.148,0,0.297-0.004,0.445-0.015c0.175,0.007,0.402,0.015,0.645,0.015   c5.396,0,8.946-2.509,12.078-4.724c2.193-1.55,4.082-2.886,6.307-3.255c1.139-0.189,2.27-0.284,3.362-0.284   c1.878,0,3.364,0.239,4.69,0.498c0.83,0.162,1.498,0.245,1.986,0.245l0.052,0.001h0.05c1.025,0,1.748-0.541,2.035-1.524   c0.207-0.705,0.355-1.37,0.504-2.043c0.146-0.669,0.385-1.765,0.613-2.074c6.896-1.07,10.682-2.606,11.578-4.695   c0.115-0.268,0.182-0.545,0.197-0.824c0.051-0.932-0.606-1.751-1.525-1.901c-11.965-1.973-17.347-14.249-17.57-14.77   c-0.013-0.03-0.026-0.061-0.041-0.089c-0.639-1.296-0.78-2.38-0.424-3.223c0.691-1.627,3.234-2.435,4.919-2.969   c0.472-0.149,0.914-0.29,1.278-0.434c2.982-1.178,4.479-2.625,4.447-4.3c-0.025-1.315-1.051-2.489-2.68-3.071l-0.005-0.002   c-0.548-0.228-1.198-0.352-1.835-0.352c-0.436,0-1.082,0.06-1.685,0.342c-1.419,0.665-2.694,1.026-3.794,1.075   c-0.729-0.034-1.205-0.218-1.478-0.367c0.034-0.606,0.073-1.23,0.114-1.883l0.016-0.254c0.377-5.979,0.846-13.421-1.108-17.802   C80.821,23.658,68.492,22.645,64.852,22.645z" fill="#040505"/></g></svg>